        <svg width="180" height="50" class="grayscale" xmlns="http://www.w3.org/2000/svg">
          <rect width="180" height="50" fill="#17527d" />
          <g transform="matrix(.99605 0 0 1 .0045556 0)" fill="#fff" stroke-width=".9779">
            <path
              d="m14.269 37.814h-5.577q-0.6541 0-0.96393-0.288-0.27541-0.324-0.27541-1.008v-17.676h-5.0607q-0.6541 0-0.96393-0.288-0.27541-0.324-0.27541-1.008v-4.356q0-0.684 0.27541-0.972 0.30984-0.324 0.96393-0.324h18.177q0.6541 0 0.92951 0.324 0.30984 0.288 0.30984 0.972v4.356q0 0.684-0.30984 1.008-0.27541 0.288-0.92951 0.288h-5.0607v17.676q0 0.684-0.30984 1.008-0.27541 0.288-0.92951 0.288z"
              color="#ffffff" />
            <path
              d="m27.902 37.814q-0.6541 0-0.96393-0.288-0.27541-0.324-0.27541-1.008v-4.284q0-0.684 0.27541-0.972 0.30984-0.324 0.96393-0.324h3.4082v-12.096h-3.4082q-0.6541 0-0.96393-0.288-0.27541-0.324-0.27541-1.008v-4.356q0-0.684 0.27541-0.972 0.30984-0.324 0.96393-0.324h14.666q0.6541 0 0.92951 0.324 0.30984 0.288 0.30984 0.972v4.356q0 0.684-0.30984 1.008-0.27541 0.288-0.92951 0.288h-3.3393v12.096h3.3393q0.6541 0 0.92951 0.324 0.30984 0.288 0.30984 0.972v4.284q0 0.684-0.30984 1.008-0.27541 0.288-0.92951 0.288z"
              color="#ffffff" />
            <path
              d="m56.51 37.814h-5.1639q-0.6541 0-0.96394-0.288-0.27541-0.324-0.27541-1.008v-23.328q0-0.684 0.27541-0.972 0.30984-0.324 0.96394-0.324h3.5803q0.6541 0 1.1016 0.216 0.48197 0.216 0.92951 0.756l6.6787 7.992v-7.668q0-0.684 0.27541-0.972 0.30984-0.324 0.96394-0.324h5.1639q0.6541 0 0.92951 0.324 0.30984 0.288 0.30984 0.972v23.328q0 0.684-0.30984 1.008-0.27541 0.288-0.92951 0.288h-5.1639q-0.6541 0-0.96394-0.288-0.27541-0.324-0.27541-1.008v-4.428l-5.8869-7.452v11.88q0 0.684-0.30984 1.008-0.27541 0.288-0.92951 0.288z"
              color="#ffffff" />
            <path
              d="m90.661 37.814h-5.577q-0.6541 0-0.96393-0.288-0.27541-0.324-0.27541-1.008v-4.608l-5.2672-7.38q-0.7918-1.116-1.0672-1.944-0.24098-0.828-0.24098-2.484v-6.912q0-0.684 0.27541-0.972 0.30984-0.324 0.96393-0.324h5.3016q0.6541 0 0.92951 0.324 0.30984 0.288 0.30984 0.972v5.904q0 0.36 0.03442 0.756 0.03443 0.396 0.27541 0.756l1.5836 2.592q0.17213 0.324 0.34426 0.468 0.20656 0.144 0.48197 0.144h0.34426q0.27541 0 0.44754-0.144 0.20656-0.144 0.37869-0.468l1.5836-2.592q0.24098-0.36 0.27541-0.756 0.03442-0.396 0.03442-0.756v-5.904q0-0.684 0.27541-0.972 0.30984-0.324 0.96393-0.324h5.1295q0.65409 0 0.92951 0.324 0.30984 0.288 0.30984 0.972v6.912q0 1.656-0.27542 2.484-0.27541 0.828-1.0328 1.944l-5.2328 7.416v4.572q0 0.684-0.30984 1.008-0.27541 0.288-0.92951 0.288z"
              color="#ffffff" />
            <path
              d="m125.53 31.01q0 1.656-0.48197 3.024-0.44754 1.332-1.6525 2.304-1.1705 0.936-3.2361 1.476-2.0656 0.54-5.2672 0.54t-5.2672-0.54q-2.0656-0.54-3.2705-1.476-1.1705-0.972-1.6525-2.304-0.44754-1.368-0.44754-3.024v-17.82q0-0.684 0.27541-0.972 0.30984-0.324 0.96394-0.324h5.4049q0.65411 0 0.92951 0.324 0.30984 0.288 0.30984 0.972v16.416q0 0.72 0.51639 1.224 0.5164 0.468 2.3066 0.468 1.8246 0 2.341-0.468 0.5164-0.504 0.5164-1.224v-16.416q0-0.684 0.2754-0.972 0.30984-0.324 0.96394-0.324h5.2328q0.65409 0 0.9295 0.324 0.30984 0.288 0.30984 0.972z"
              color="#ffffff" />
            <path
              d="m139.96 18.374v4.608h2.582q0.89508 0 1.2049-0.468 0.30983-0.504 0.30983-1.224v-1.224q0-0.72-0.30983-1.188-0.30984-0.504-1.2049-0.504zm-1.2393 19.44h-5.3016q-0.6541 0-0.96393-0.288-0.27541-0.324-0.27541-1.008v-23.328q0-0.684 0.27541-0.972 0.30983-0.324 0.96393-0.324h11.464q3.8557 0 5.3016 1.692 1.4803 1.656 1.4803 4.32v1.656q0 1.512-0.44754 2.592-0.41312 1.044-1.4803 1.512 1.859 0.216 2.9951 1.584 1.1705 1.368 1.1705 3.636v7.632q0 0.684-0.30983 1.008-0.27541 0.288-0.92951 0.288h-5.3361q-0.6541 0-0.96394-0.288-0.2754-0.324-0.2754-1.008v-5.508q0-0.792-0.30984-1.152-0.27542-0.396-0.99837-0.396h-4.8197v7.056q0 0.684-0.30983 1.008-0.27541 0.288-0.9295 0.288z"
              color="#ffffff" />
            <path
              d="m178.59 37.814h-17.523q-0.6541 0-0.96394-0.288-0.2754-0.324-0.2754-1.008v-23.328q0-0.684 0.2754-0.972 0.30984-0.324 0.96394-0.324h5.3361q0.6541 0 0.92951 0.324 0.30984 0.288 0.30984 0.972v17.82h4.7164v-5.832q0-0.684 0.2754-0.972 0.30984-0.324 0.96393-0.324h4.9918q0.65411 0 0.92952 0.324 0.30983 0.288 0.30983 0.972v11.34q0 0.684-0.30983 1.008-0.27541 0.288-0.92952 0.288z"
              color="#ffffff" />
          </g>
        </svg>