<?xml version="1.0" standalone="no"?>
<!DOCTYPE svg PUBLIC "-//W3C//DTD SVG 20010904//EN"
 "http://www.w3.org/TR/2001/REC-SVG-20010904/DTD/svg10.dtd">
<svg version="1.0" xmlns="http://www.w3.org/2000/svg"
 width="256.000000pt" height="256.000000pt" viewBox="0 0 256.000000 256.000000"
 preserveAspectRatio="xMidYMid meet">

<g transform="translate(0.000000,256.000000) scale(0.100000,-0.100000)"
fill="#000000" stroke="none">
<path d="M1109 2550 c-542 -86 -942 -453 -1076 -987 -25 -97 -27 -126 -27
-283 0 -157 2 -186 27 -283 124 -497 467 -840 964 -964 97 -25 126 -27 283
-27 157 0 186 2 283 27 497 124 840 467 964 964 25 97 27 126 27 283 0 157 -2
186 -27 283 -124 495 -468 841 -958 963 -82 20 -136 26 -254 29 -82 2 -175 0
-206 -5z m352 -206 c485 -92 843 -441 923 -899 82 -468 -147 -930 -570 -1148
-541 -281 -1233 -77 -1514 446 -195 362 -166 818 73 1145 161 221 387 373 647
436 58 13 119 27 135 29 74 10 230 6 306 -9z"/>
<path d="M1282 1789 c-79 -41 -101 -49 -148 -49 -35 0 -69 7 -94 20 -48 25
-67 25 -79 2 -13 -25 -4 -35 58 -61 44 -18 68 -22 122 -19 57 3 83 12 174 57
90 45 106 56 103 75 -5 34 -35 28 -136 -25z"/>
<path d="M1780 1759 c-9 -15 -8 -24 1 -35 25 -31 80 3 66 40 -9 23 -54 20 -67
-5z"/>
<path d="M1782 1627 c-7 -8 -12 -90 -14 -212 -3 -197 -3 -200 18 -203 45 -6
51 14 56 215 4 120 2 193 -4 201 -13 16 -43 16 -56 -1z"/>
<path d="M1653 1598 c-6 -7 -14 -83 -17 -168 -4 -85 -9 -171 -12 -190 -7 -46
22 -78 54 -61 12 6 23 19 26 28 2 10 6 104 8 208 l3 190 -26 3 c-14 2 -30 -3
-36 -10z"/>
<path d="M2050 1571 c-5 -11 -10 -58 -10 -106 0 -79 -2 -88 -25 -111 -42 -42
-50 -29 -50 87 l0 104 -27 3 c-18 2 -30 -3 -36 -15 -13 -23 -19 -210 -8 -240
10 -32 51 -39 105 -20 41 15 44 15 26 1 -11 -9 -38 -25 -60 -36 -55 -28 -103
-75 -110 -109 -9 -42 12 -98 42 -110 82 -31 178 26 202 119 11 46 24 412 15
435 -8 23 -51 22 -64 -2z m-20 -396 c0 -45 -55 -103 -86 -91 -27 10 -15 45 28
76 46 34 58 37 58 15z"/>
<path d="M686 1476 c-81 -30 -123 -103 -113 -194 6 -54 46 -99 134 -148 89
-50 121 -80 129 -121 16 -87 -48 -167 -135 -167 -49 0 -94 23 -112 57 -9 16
-7 23 16 41 61 49 0 126 -63 79 -77 -57 -40 -193 65 -239 41 -18 134 -18 177
0 51 21 112 86 125 131 6 22 19 46 30 55 18 13 20 30 22 145 3 136 -1 155 -30
155 -30 0 -41 -22 -41 -82 0 -32 -2 -58 -4 -58 -14 0 -205 116 -218 133 -47
59 7 147 89 147 46 0 59 -14 45 -46 -11 -22 -10 -31 3 -50 19 -29 45 -31 76
-6 41 34 22 120 -35 157 -34 23 -114 28 -160 11z"/>
<path d="M1544 1435 c-10 -8 -37 -15 -58 -15 -33 0 -46 -7 -89 -50 -47 -47
-51 -49 -68 -34 -26 23 -94 22 -127 -3 -53 -40 -93 -166 -71 -230 28 -87 144
-83 211 7 10 14 32 66 48 115 28 84 52 125 72 125 5 0 4 -9 -2 -19 -5 -11 -11
-59 -12 -106 -3 -74 0 -89 15 -99 32 -21 52 4 54 70 4 95 12 127 29 120 22 -8
54 11 54 33 0 11 -8 22 -17 26 -17 6 -17 7 0 19 21 16 22 42 1 50 -20 8 -17 8
-40 -9z m-233 -171 c10 -13 10 -17 -2 -25 -8 -5 -17 -9 -21 -9 -5 0 -8 -17 -8
-38 0 -44 -23 -82 -50 -82 -36 0 -38 94 -4 148 17 26 65 30 85 6z"/>
<path d="M1037 1293 c-3 -5 -8 -67 -12 -138 -6 -112 -5 -132 8 -144 20 -16 54
-6 61 17 4 16 10 230 7 260 -1 13 -57 17 -64 5z"/>
<path d="M1765 1069 c-16 -6 -91 -26 -165 -45 -74 -20 -184 -49 -245 -65 -248
-66 -233 -63 -261 -48 -18 9 -30 10 -42 2 -47 -29 -7 -83 61 -83 47 1 43 0
282 64 453 121 442 117 451 141 8 19 -13 45 -35 44 -9 0 -29 -5 -46 -10z"/>
<path d="M1490 706 c-14 -8 -49 -30 -79 -50 -44 -30 -62 -36 -105 -36 -28 0
-66 4 -84 9 -41 12 -89 -3 -98 -31 -3 -11 -4 -22 -1 -24 3 -3 56 -7 119 -10
124 -5 115 -8 253 75 43 26 55 38 53 55 -4 26 -25 30 -58 12z"/>
</g>
</svg>
