<svg xmlns="http://www.w3.org/2000/svg" width="5397" height="4483" viewBox="0 0 5397 4483" fill="none">
<g filter="url(#filter0_f_911_7520)">
    <g>
    <path d="M2940.6 2471.3C3296.26 2249.31 3866 2368.53 4246.33 2448.12L4324.5 2162.55L1373.62 1545.06L965.776 3034.84C2480.8 3373.23 2574.89 2699.56 2940.6 2471.3Z" fill="#FFC700" fill-opacity="0.75"/>
    </g>
    <g>
    <path d="M3377.16 2248.57C3732.82 2026.58 4302.56 2145.8 4682.89 2225.39L4761.06 1939.82L1810.18 1322.33L1402.34 2812.11C2917.36 3150.5 3011.45 2476.84 3377.16 2248.57Z" fill="#1E9C4C"/>
    </g>
    <g style="mix-blend-mode:lighten">
    <path d="M2923.3 2268.98C3278.95 2046.99 3848.7 2166.21 4229.02 2245.79L4307.2 1960.23L1356.32 1342.74L948.474 2832.52C2463.5 3170.91 2557.59 2497.24 2923.3 2268.98Z" fill="#A4AB60"/>
    </g>
    <g style="mix-blend-mode:hue">
    <path d="M2827.62 2408.19C3183.28 2186.2 3753.02 2305.43 4133.34 2385.01L4211.52 2099.44L1260.64 1481.96L852.796 2971.73C2367.82 3310.13 2461.91 2636.46 2827.62 2408.19Z" fill="#2C3C17"/>
    </g>
    <g style="mix-blend-mode:hue">
    <path d="M2827.92 2002.24C3183.58 1780.25 3753.32 1899.47 4133.64 1979.05L4211.82 1693.48L1260.94 1076L853.096 2565.78C2368.12 2904.17 2462.21 2230.5 2827.92 2002.24Z" fill="#2C3C17"/>
    </g>
    <g>
    <path d="M3081.6 1951.72C3437.26 1729.73 4007 1848.95 4387.33 1928.53L4465.5 1642.97L1514.62 1025.48L1106.78 2515.26C2621.8 2853.65 2715.89 2179.98 3081.6 1951.72Z" fill="#FFF"/>
    </g>
    <g>
    <circle cx="1766.97" cy="2345.65" r="334.451" transform="rotate(13.4603 1766.97 2345.65)" fill="#FF0060"/>
    </g>
    <rect x="581" y="959" width="4235" height="2565" fill="black" fill-opacity="0.3"/>
</g>
<defs>
<filter id="filter0_f_911_7520" x="636.808" y="1216.1" width="4016.66" height="2241.03" filterUnits="userSpaceOnUse" color-interpolation-filters="sRGB">
<feFlood flood-opacity="0" result="BackgroundImageFix"/>
<feBlend mode="normal" in="SourceGraphic" in2="BackgroundImageFix" result="shape"/>
<feGaussianBlur stdDeviation="164.484" result="effect1_foregroundBlur_911_7520"/>
</filter>
<filter id="filter1_f_911_7520" x="1292.68" y="1212.68" width="3578.04" height="1802.4" filterUnits="userSpaceOnUse" color-interpolation-filters="sRGB">
<feFlood flood-opacity="0" result="BackgroundImageFix"/>
<feBlend mode="normal" in="SourceGraphic" in2="BackgroundImageFix" result="shape"/>
</filter>
<filter id="filter2_f_911_7520" x="509.849" y="904.117" width="4235.97" height="2460.34" filterUnits="userSpaceOnUse" color-interpolation-filters="sRGB">
<feFlood flood-opacity="0" result="BackgroundImageFix"/>
<feBlend mode="normal" in="SourceGraphic" in2="BackgroundImageFix" result="shape"/>
<feGaussianBlur stdDeviation="219.312" result="effect1_foregroundBlur_911_7520"/>
</filter>
<filter id="filter3_f_911_7520" x="304.516" y="933.678" width="4455.29" height="2679.65" filterUnits="userSpaceOnUse" color-interpolation-filters="sRGB">
<feFlood flood-opacity="0" result="BackgroundImageFix"/>
<feBlend mode="normal" in="SourceGraphic" in2="BackgroundImageFix" result="shape"/>
<feGaussianBlur stdDeviation="274.14" result="effect1_foregroundBlur_911_7520"/>
</filter>
<filter id="filter4_f_911_7520" x="524.128" y="747.032" width="4016.66" height="2241.03" filterUnits="userSpaceOnUse" color-interpolation-filters="sRGB">
<feFlood flood-opacity="0" result="BackgroundImageFix"/>
<feBlend mode="normal" in="SourceGraphic" in2="BackgroundImageFix" result="shape"/>
<feGaussianBlur stdDeviation="164.484" result="effect1_foregroundBlur_911_7520"/>
</filter>
<filter id="filter5_f_911_7520" x="706.777" y="625.483" width="4158.73" height="2383.09" filterUnits="userSpaceOnUse" color-interpolation-filters="sRGB">
<feFlood flood-opacity="0" result="BackgroundImageFix"/>
<feBlend mode="normal" in="SourceGraphic" in2="BackgroundImageFix" result="shape"/>
<feGaussianBlur stdDeviation="200" result="effect1_foregroundBlur_911_7520"/>
</filter>
<filter id="filter6_f_911_7520" x="1032.44" y="1611.12" width="1469.05" height="1469.05" filterUnits="userSpaceOnUse" color-interpolation-filters="sRGB">
<feFlood flood-opacity="0" result="BackgroundImageFix"/>
<feBlend mode="normal" in="SourceGraphic" in2="BackgroundImageFix" result="shape"/>
<feGaussianBlur stdDeviation="200" result="effect1_foregroundBlur_911_7520"/>
</filter>
</defs>
<script xmlns=""/></svg>